<svg width="50" height="50" viewBox="0 0 50 50" fill="none" xmlns="http://www.w3.org/2000/svg">
<path d="M6.25 23.4375H1.5625C0.7 23.4375 0 24.1375 0 25C0 25.8625 0.7 26.5625 1.5625 26.5625H6.25C7.1125 26.5625 7.8125 25.8625 7.8125 25C7.8125 24.1375 7.1125 23.4375 6.25 23.4375ZM25 7.8125C25.8625 7.8125 26.5625 7.1125 26.5625 6.25V1.5625C26.5625 0.7 25.8625 0 25 0C24.1375 0 23.4375 0.7 23.4375 1.5625V6.25C23.4375 7.1125 24.1375 7.8125 25 7.8125ZM40.0328 12.1562L43.3157 8.87337C43.9203 8.26871 43.9203 7.28897 43.3157 6.68431C42.711 6.07966 41.7312 6.07966 41.1266 6.68431L37.8437 9.96716C37.2391 10.5718 37.2391 11.5516 37.8437 12.1562C38.4484 12.7609 39.4282 12.7609 40.0328 12.1562ZM11.5781 36.2344L8.29526 39.5172C7.6906 40.1219 7.6906 41.1016 8.29526 41.7063C8.89992 42.3109 9.87966 42.3109 10.4843 41.7063L13.7672 38.4234C14.3718 37.8188 14.3718 36.8391 13.7672 36.2344C13.1625 35.6297 12.1828 35.6297 11.5781 36.2344ZM10.6375 12.8469C11.2484 13.4578 12.2375 13.4578 12.8468 12.8469C13.4562 12.2359 13.4562 11.2469 12.8468 10.6376L9.53284 7.3219C8.9219 6.71095 7.93284 6.71095 7.32345 7.3219C6.7125 7.93284 6.7125 8.9219 7.32345 9.53129L10.6375 12.8469ZM25 42.1875C24.1375 42.1875 23.4375 42.8875 23.4375 43.75V48.4375C23.4375 49.3 24.1375 50 25 50C25.8625 50 26.5625 49.3 26.5625 48.4375V43.75C26.5625 42.8875 25.8625 42.1875 25 42.1875ZM39.3625 37.1531C38.7516 36.5422 37.7625 36.5422 37.1531 37.1531C36.5422 37.7641 36.5422 38.7531 37.1531 39.3625L40.4672 42.6766C41.0781 43.2875 42.0672 43.2875 42.6766 42.6766C43.286 42.0655 43.2875 41.0766 42.6766 40.4672L39.3625 37.1531ZM48.4375 23.4375H43.75C42.8875 23.4375 42.1875 24.1375 42.1875 25C42.1875 25.8625 42.8875 26.5625 43.75 26.5625H48.4375C49.3 26.5625 50 25.8625 50 25C50 24.1375 49.3 23.4375 48.4375 23.4375ZM25 10.9281C17.2281 10.9281 10.9281 17.2281 10.9281 25C10.9281 32.7719 17.2281 39.0719 25 39.0719C32.7719 39.0719 39.0719 32.7719 39.0719 25C39.0719 17.2281 32.7719 10.9281 25 10.9281ZM25 35.9344C18.9609 35.9344 14.0656 31.0391 14.0656 25C14.0656 18.9609 18.9609 14.0656 25 14.0656C31.0391 14.0656 35.9344 18.9609 35.9344 25C35.9344 31.0391 31.0391 35.9344 25 35.9344Z" fill="#424242"/>
</svg>
