<svg width="50" height="50" viewBox="0 0 50 50" fill="none" xmlns="http://www.w3.org/2000/svg">
<path fill-rule="evenodd" clip-rule="evenodd" d="M19.8208 5.76846C20.2042 5.66429 20.625 5.70387 20.9958 5.91012C21.75 6.33096 22.0188 7.28304 21.6 8.03721C20.3958 10.1914 19.7125 12.6726 19.7125 15.3143C19.7125 23.5726 26.4167 30.2768 34.675 30.2768C37.3146 30.2768 39.7938 29.5935 41.9458 28.3935C42.7 27.9726 43.6521 28.2435 44.0729 28.9976C44.2042 29.233 44.2688 29.4914 44.2708 29.7435C44.2729 29.8789 44.2563 30.0164 44.2229 30.1539C42.025 38.8539 34.1396 45.3018 24.7604 45.3018C13.6813 45.3018 4.6875 36.308 4.6875 25.2289C4.6875 15.883 11.0896 8.02054 19.7188 5.79762L19.8208 5.76846V5.76846ZM17.3917 9.96429C11.725 12.708 7.8125 18.5143 7.8125 25.2289C7.8125 34.583 15.4063 42.1768 24.7604 42.1768C31.4729 42.1768 37.2813 38.2643 40.025 32.5976C38.3333 33.1205 36.5375 33.4018 34.675 33.4018C24.6917 33.4018 16.5875 25.2976 16.5875 15.3143C16.5875 13.4518 16.8688 11.656 17.3917 9.96429V9.96429Z" fill="#424242"/>
</svg>
